<mxfile host="65bd71144e">
    <diagram id="y_yiku4FijolRKW5gnA-" name="PÃ¡gina-1">
        <mxGraphModel dx="2903" dy="941" grid="0" gridSize="10" guides="1" tooltips="1" connect="1" arrows="1" fold="1" page="1" pageScale="1" pageWidth="827" pageHeight="1169" math="0" shadow="0">
            <root>
                <mxCell id="0"/>
                <mxCell id="1" parent="0"/>
                <mxCell id="8" value="Solucion A" style="text;align=center;fontStyle=1;verticalAlign=middle;spacingLeft=3;spacingRight=3;strokeColor=none;rotatable=0;points=[[0,0.5],[1,0.5]];portConstraint=eastwest;fillColor=none;" parent="1" vertex="1">
                    <mxGeometry x="-751" y="16" width="80" height="26" as="geometry"/>
                </mxCell>
                <mxCell id="9" value="Solucion A con el cruce" style="text;align=center;fontStyle=1;verticalAlign=middle;spacingLeft=3;spacingRight=3;strokeColor=none;rotatable=0;points=[[0,0.5],[1,0.5]];portConstraint=eastwest;fillColor=none;" parent="1" vertex="1">
                    <mxGeometry x="-378" y="20" width="80" height="26" as="geometry"/>
                </mxCell>
                <mxCell id="21" value="" style="shape=image;verticalLabelPosition=bottom;labelBackgroundColor=#ffffff;verticalAlign=top;aspect=fixed;imageAspect=0;image=data:image/png,iVBORw0KGgoAAAANSUhEUgAAAREAAAFvCAYAAABtvP8/AAAVp0lEQVR4nO2dzY0cRxJGqxc60AkCPMgAXmgBTeBFRhDQuiKARmgPNIEW8EIDtACBcUK33sOihj3J7h6yMuOLiE/vAQQ0I4FPGdETU/kTlafz+Xz+93/+uwEAHOFf2f8DANCbq0Xkj99+DRf/8duv33mufa+b67n/D/XfH+Xc45cVx2i/ckzRn8/ov/+XJX8L/KP447dft9///OvZ70WS7YdvpE5nfv/zr8dqGP0hULr+iRDPOaI/n5F/P08iRuwflP0DElUsLz+Ql9+DfybpRWT84Lu43GE6sZ7oz2fU38/uTDDqRUcANSWKSOaCnBv7b5vI32gUxjiiP58Rf//N6Qxz3jVcrh+4xLDCmojCnz3GLpw4sQoAM5SYzgBAXygiADDF6Xw+n0+nU/b/BwA0Y18jeiwiX74+hApfv3q5ffgU69h5//bldj6fJa6R0+kkc6tcyjFl+Z3ypo4X0xkAmCK0iLx+9TLyr3/C+7c614hyOqhyZU9xFX6nvGXGK+TYO8Wjr4vi0ctVIV4hTyJfvj6Er7HsfPj0IFtrGTmfz7J5tMqlHFOW3ylvFeLFmggATEERAYApKCIAMAVFBACmoIgAwBShRUS1Q7NtW9oOzbZt0t0M5a5CJqqdKBWKHZRobjl4EgGAKSgiADAFXbwAcIh9evN47J0u3jU4dYOqPZl+p7yp4rXDdAYApljegHfZfBf9dHPZfKfenbmsxMqqH/0bTOHJ9DvlrUq8lhaR169ePikc49cref/26fRo/DqS8XEx8vFR5VKOKcvvlLdK8Vo6neFcSF8X50J6uSrFK2xNJPIpZET5FDLitCCn9mT6nfKWHa+QIkIB6euigPRyVYjX8iJCAenrooD0clWJ19IiQgHp66KA9HJVilfoFu+2xS62ju9XVRaV8ZSvaus10qUcU5bfKW9V4rW0iLA709fF7kwvV6V4cWIVAKagiADAFHTxAsAh6OINwmkHQO3J9DvljS5eAGgFXbwHceoGVXsy/U55qxIvungP4NQNqvZk+p3yViledPEewOm8gdqT6XfKW6V4LZ/ObNu3KY2iqOxTmoyisj/qqRY3FS7lmLL8TnmrEK+QhdUvXx+2L18fvjsCH8GHTw/bh08P3x2BV3A+//+2dMUWucqlHFOW3ylvFeLF7gwATLG8i1dFxpPHjvK3tMqVfeBQ4XfKW6V4LW/AU23xjlMY5ZrI+GgXOR9VuZRjyvI75a1SvJYvrLJD09fFDk0vV5V4sSYCAFNQRABgCrp4AeAQdPEG4dQNqvZk+p3yRhcvALQi9PIqFZwZ6enJ9DvlLTteYZdXqaCA9PRk+p3yViFeXF51EKc5tNqT6XfKW5V4cXnVAZw+iGpPpt8pb5XixcIqAEwRMp3Z10Si10bev335uCaiXhs5nU6Pc0XFvFfhUo4py++UtyrxCrsBL3pqk/VqxG172k8Q/VipcmW+GlHld8pbpXgxnQGAKcKKCN28fV108/ZyZceLJxEAmIIiAgBT0MULAIegizcIpwNNak+m3ylvdPECQCuWX6M5EnmN5ojyGs2R6MuJol3KMWX5nfJWKV68qPkgTluEak+m3ylvVeLFdAYAplj+JKK6d2bbtrR7Z7bt6aOechFLcedqtCfT75S3KvEK653Zttj+mbFoKPtnxmCqeloiXcoxZfmd8lYpXkxnAGAK7uI9gNPr9dSeTL9T3irFi7t4D+B0p6vak+l3yluleLHFexCnrUK1J9PvlLcq8WJNBACmoIgAwBR08QLAIejiDcKpG1TtyfQ75Y0uXgBoBcfeD+J0fFrtyfQ75a1KvJa/CkB1bcR4zF157H18XIx8fFS5lGPK8jvlrVK8QqcznBnp6+LMSC9XZryYzhzE6bFY7cn0O+WtSrxCT6xyC14vV+Z0RuV3yluVeLE7AwBTUEQAYAq6eA/g1A2q9mT6nfJWKV508R7EaWVf7cn0O+WtSryYzgDAFBQRAJiCLl4AOMR3XbzR6wvKcxx08fb0ZPqd8kYXLwC0YunujPJ+XO7i7enJ9DvlrVK8lhaRaxdKRaF0jYyBjFxTUrmUY8ryO+WtUrzCpjPqNZCsMyNOc2m1J9PvlLfseLEmAgBThBQRnkL6ungK6eWqEC+eRABgCooIAExBEQGAKUKKiHKNgk7enp5Mv1PeKsSLJxEAmIIiAgBT0MULAIegizcIpzMIak+m3ylvdPECQCuWv2NV+fJkLq/q6cn0O+WtSryWvwpAdaEUd/H29GT6nfJWKV5MZwBgiuXvE1FNMbh3pqcn0++Ut0rxYjpzAKfHYrUn0++Ut0rxYjoDAFNQRABgCtZEDuA0t1Z7Mv1OeasUr+XnROjg7euig7eXq0q8mM4AwBQUEQCYgi5eADhEShfvl6+aNYzXr+ji7ejJ9DvljS5eAGhF6y7e16++uVRPOTtO3aBqT6bfKW9V4tX22PvrV0+nR+PXkTgdn1Z7Mv1OeasUL6YzADBF6InVSL58fXgynVEynuRzcCnHlOV3yluleIWeWI0uKON0Rsn4mOfgUo4py++UtyrxYjoDAFMsLSKqqcy26Z88LlH+lla5sg8cKvxOeasUr7ZdvOOaiHKL16kbVO3J9DvlrVK8Wnfxqs+GXOLUDar2ZPqd8lYlXqyJAMAUFBEAmIIuXgA4BF28QTh1g6o9mX6nvNHFCwCtWFJELrd13799+fgngstt3devXj7+UXBZfU+n0+Ofzi7lmLL8TnmrGK+pLd6xUER28Y6FQtnFOwYwsoNS5VKOKcvvlLfK8Zp6Evnw6UF2LuTL14e0cyHn81l6VkO1/5+5zqHwO+WtcrxYEwGAKSgiADAFRQQApqCIAMAUdPEewKkbVO3J9DvlrVK8lhSRy2IRvVtzWSzUuzWXQVR2aEZ/2BWeTL9T3irGi+kMAExBEQGAKejiBYBD0MUbhFM3qNqT6XfKG128ANCK0Le9R779/VpDnoprjUrdXcoxZfmd8lYpXku2eCkefV0Uj16uivFa8iQydvNGdveO3bzK7t6xyzGys1LlUo4py++Ut4rxYk0EAKagiADAFBQRAJiCIgIAU1BEAGCKpUVk3JGJfhXAva8jGVeqVV22kS7lmLL8TnmrFC+eRABgCooIAExBFy8AHIIu3iCcukHVnky/U97o4gWAVnAX70/gdKer2pPpd8pbxXhxF+8P4HSnq9qT6XfKW+V4Lb2LN/pcSNab3q91NXZ3KceU5XfKW+V4ha2JrHwKeY7Ip5DncFqQU3sy/U55y45XSBGhgPR1UUB6uSrEa3kRoYD0dVFAermqxGv5O1YpID1dFJBerkrxWnoX77Z9v2MTWVTGHRtlURlXspU7GVEu5Ziy/E55qxKvpXfxKp5C9kKR8RSyB1Dxw6VyKceU5XfKW8V4cWIVAKagiADAFHTxAsAh6OINwmkHQO3J9DvljS5eAGgFXbw/gVM3qNqT6XfKW8V40cX7Azh1g6o9mX6nvFWOF128P4BTN6jak+l3ylvleC0/sbpt355QFIfP9ieUjMNne+VWLW4qXMoxZfmd8lYhXiELq/sTStS6yCX7E4pqXeSSvXIr1hBULuWYsvxOeasQL3ZnAGCK5V28KjKePHaydi8cPJl+p7xVitfSNZFxChO90HpZSNQLrZcBjl6wU7iUY8ryO+WtUryWdvGO/xxB1g7Ntj0Noqq7NtqVuUOj8jvlrWK8WBMBgCkoIgAwBV28AHAIuniDcOoGVXsy/U55o4sXAFqxvIv33vdWcO18SEYX773vdXIpx5Tld8pbxXgt7eJ97vsz3CoUigJyK4CqH+oIl3JMWX6nvFWO19Iu3m2Lu3tm7OLdNt3dM2N347bFzTtVLuWYsvxOeascLy6vOoDTIpzak+l3yluleLGwCgBThNzFu6+JRDfkXb4aUd2Qd/nKOEWzlcKlHFOW3ylvVeK1vAFvJ3pqo3o14jVWv5augks5piy/U94qxYvpDABMsaSIXHviiHoKufbEoXoKuVaJFU8GkS7lmLL8TnmrGC+eRABgCooIAExBFy8AHIIu3iCcDjSpPZl+p7zRxQsArVhyTmQ/E3LtcNnqJ5z9TMi1w2XRTzp7hb82/Vtd+VUu5Ziy/E55qxiv5V28UdOijKKxo/wBU7myiobS75S3yvFa3sUbxbUuXhXXuhu7u5RjyvI75a1yvJbfxau6d2bbtrR7Z7btadVWLmJFL8gpPJl+p7xViVdY78y2xfbPZL1bZNu+D6aqpyXSlfluEZXfKW+V4sXuDABMwV28B8h+B2lnT6bfKW+V4sVdvAcYt7+iF9QULuWYsvxOeasUL+7i/Qkug6hYKVe4lGPK8jvlrWK8WBMBgCkoIgAwBV28AHCI77p4//78MVT44s07unibuuji7eWiixcAWrGkiLx48+7JP+9/Irjc1t2vjMi4i3d/lX7kq/oVLuWYsvxOeasYr6kt3rFQvHjz7sm0aPx6hrFQjMfcI4+9jwEcHxdXPj6qXMoxZfmd8lY5XlNPIn9//ni3SKxcZ3muizdyveW57sbVPREKl3JMWX6nvFWO1/Iu3sunk+jFWrp4e3oy/U55qxKv5UUkajpzDW7B6+nJ9DvlrUq82J0BgCkoIgAwxdLpzN+fP8rWROji7enJ9DvlrVK8lhSRy2IRvZhKF29PT6bfKW8V48V0BgCmoIgAwBR08QLAIejiDcKpG1TtyfQ75Y0uXgBoxZLdmf1k6rXO3dVPONzFu/56RtWYsvxOeasYr6VdvGPBWPk6gLFoXLu8KooxmGMgo1q9I13KMWX5nfJWOV5hXbyr+2budfFG983c625cPf9UuZRjyvI75a1yvFgTAYApQopIdPfuJeru3UucVvTVnky/U94qxIsnEQCYgiICAFNQRABgiiVFZFz/UL3N7NrXkYzzQlV3baRLOaYsv1PeKsaLJxEAmIIiAgBT0MULAIdI6eJVnR158eYdXbwNPZl+p7zRxQsArWh3F6/SNaK4B1XtUo4py++Ut4rxanMXr9I1orgHVe1SjinL75S3yvEKvYt3JUrXyL3uxq4u5Ziy/E55qxyvtvfOKF0j4wtboj88CpdyTFl+p7xVitfSIqKcYihdI8pHf5VLPZ3J8DvlrVK82J0BgCkoIgAwBWsiB3CaW6s9mX6nvFWKV7u7eJWukcsgKlbKFS7lmLL8TnmrGC+mMwAwBUUEAKagixcADkEXbxBO3aBqT6bfKW908QJAK+ji/QmcukHVnky/U94qxosu3h/AqRtU7cn0O+Wtcrzo4v0BnLpB1Z5Mv1PeKscr9MRqJErXyHiSz8GlHFOW3ylvleK1tIhs2/bdFCMSpWtkfMxzcCnHlOV3yluVeLE7AwBTLC0iyqeBrKnMtml/S6tc2QcOFX6nvFWKF128B3DqBlV7Mv1OeasUL7p4fwKnblC1J9PvlLeK8WJNBACmoIgAwBR08QLAIejiDcKpG1TtyfQ75Y0uXgBoxeHdmVvbqxHbrkrXyK0trojtNZVLOaYsv1PeqsfrUBG51UEb0VmrdI3c6mKM6qBUuJRjyvI75a1DvA5NZ5TnM7I6d7dNe25C2W2aiapDWYXy3ElVx/SaiHrBNKuoOC28qT2Zfqe8VY3XVBGhgPR1UUB6uSrH63ARoYD0dVFAermqx+tQEaGA9HVRQHq5OsRryRbvtn17fWH0Fm+0a2Q8zXs+n8M6KFUu5Ziy/E55qx6vQ0Xk3g/s6h9mpWvkXmJW/5CpXMoxZfmd8tYhXpxYBYApKCIAMAVdvABwiH2qQxfvYpx2BtSeTL9T3ujiBYBWLDn2fus+3NVvZFe6Rk6n23eSrp4OqlzKMWX5nfJWNV7Td/He6rBdjdI1cq/LsatLOaYsv1PeKsdr+i7eW99XnRdR3NF7a365H8jp6FKOKcvvlLfK8Vq2JsJR+L4uFk57uarFa0kRoYD0dVFAerkqxov3ifwgTh9EtSfT75S3qvHifSI/gNMHUe3J9DvlrXK8pq/RvNZhG4XSNXKty7G7SzmmLL9T3qrGa6qIPPdDvPKHXOkaeS6Qqi7blS7lmLL8TnmrHC9OrALAFBQRAJiCLl4AOARdvEE47QioPZl+p7zRxQsAreAu3me49aLa6Bf+RrqUY8ryO+Wtery4i/cO97oar32/g0s5piy/U946xGvpXbwRTwNK18i9rsauLuWYsvxOeesQr7DemYgnA6Vr5FYVjviNrXIpx5Tld8pb1XiF9M5QQOq7KCC98lY5Xsvv4qWA1HdRQHrlrXq8lt7FSwGp76KA9Mpbh3gtvYv33vdnULpGbnU1RnRUqlzKMWX5nfJWPV5L7+Jld6a+i92ZtbA7w4lVAJiEIgIAU9DFCwCH2Kc7dPEuRrXLoXQpx5Tld8qbKl47TGcAYAq6eJ9B0UGpdinHlOV3ylv1eNHFewenblC1J9PvlLcO8aKL9w5O5w3Unky/U946xGvJvTPjD/Q+zVAcgY9yjVyrwvujnuIodYRLOaYsv1PeqsYrpIv3788fH6ccq1C6Rm49xp3P58fHvm4u5Ziy/E55qxyv5V28EXCFZk9Ppt8pb9XjtbyLdzVK18i97sauLuWYsvxOeesQr6VdvOO0ImKLN9o1cq2LcXy0i9gqjHQpx5Tld8pb9Xgt7eJ97t9Vd43cS4xq12S1SzmmLL9T3jrEixOrADAFRQQApqCLFwAOsU916OJdjNPWotqT6XfKmypeO0xnAGCKqcNm+59b/34VStfI6XR6/HPr33dzKceU5XfKW/V4Le3ivfx6FUrXyHNdjJEHfqJcyjFl+Z3y1iFeS7t4t2392ofSNXJvXrl63qlyKceU5XfKW4d4Lb2LN/qHWukauQymcmEs0qUcU5bfKW9V4xXSxRsBTXg9PZl+p7xVjlfIXbz7OsWq9Qqla+Rec9I+V1Q0W610KceU5XfKW/V4LVlY3Yl4XaHSNXIrsPcWoaq7lGPK8jvlrUO8lt/FG4HSNTJW3+hHVoVLOaYsv1PeqsdreRfvz/w31VwjPxJIxa7JSpdyTFl+p7x1iBcnVgFgCooIAExBFy8AHIIu3iCcziaoPZl+p7yp4rXDdAYAplh6F++1A1+rzoqoXCOXFffyOPDIqjMHCpdyTFl+p7xVj9fyLt7oW+8iXSP3uhsj+yIiXcoxZfmd8tYhXsu7eFeT1S+zbdpDWCpX5tqGyu+Utw7xWn4Xb+RdMErXyLVqvaP47RbhUo4py++Ut6rxmioi4w/1tcu2V15gpXKNjIEdg7lyNVzlUo4py++Ut8rx4i7eZ3Da+lN7Mv1OeaseL+7ivcO99uiuLuWYsvxOeesQL+7ifYZr3Y3nc887XdWeTL9T3qrHi7t473AvMat/yFQu5Ziy/E556xAvTqwCwBQUEQCYgi5eADjEPtX55fILAICfhekMAExBEQGAKf4Hytu7fSWTFl4AAAAASUVORK5CYII=;" parent="1" vertex="1">
                    <mxGeometry x="-811" y="55" width="273" height="367" as="geometry"/>
                </mxCell>
                <mxCell id="22" value="" style="shape=image;verticalLabelPosition=bottom;labelBackgroundColor=#ffffff;verticalAlign=top;aspect=fixed;imageAspect=0;image=data:image/png,iVBORw0KGgoAAAANSUhEUgAAATgAAAFuCAYAAAAVqASAAAAVjklEQVR4nO2dMZIcR5JFs8ZGoLZGFQKVpfEGVKHMESgMLwCZV1mKNF6ACi5BFfoKNEoUqFKFliPMViORqCrsdEfE++HxnlmbsRtj/P/7EN4RkRlel59++mnfREQK8vf//a9/0B5ERJryP//8723btu1vsA8RkW7cbXA/fv91V+Efv//6E41bP6uie88LrUfkvuoevxI8jPBBZT17IP8OjNT/e/N/o8hn+PH7r7cffvn9sz8bQYoP6QO6Rf3hl9+fuvbI/7AoXbmP/x+Mhf47MErfFdxCXP+juv7HRK6aztsRG5z0AG9w57901XXl37g15KH/DozQ9ynqYBIOmUVWIaLBkb9BVuP6W5P8zW2Tz4H+O9Bb/+EW1XOS9hzPn1atZ9IZHOEjJfsKXH745XevaolIKbzJICLlscGJSFmezuA8+BWRKvz4/bbt+75d9n3ft23bLpfL9sdfv3UT/OrLb7b/kxrK5XJBdBP06ez6yMhOeyDr7hZVRMrStcF99eU3Pf/1d7lcLohugj6d/crKPhKy0x5S6t7lqpaNbS3tIyv7SMhOe0ire5cV3B9//db1PO8e+76jZw2kPp1dHxnZaQ9pdfcMTkTKYoMTkbLY4ESkLDY4ESmLDU5EytK1wRFPUrdti3iStaL2kZV9JGSnPaTU3RWciJTFBiciZfnosr2ISBX2ff/4qpbTRGrp09n1kZGd9kDVfdvcoopIYZpftj9etB/5FPW4xaZWipQ+nV0fGdlpD4l1b9rgvvrym4+a2vn7XpyXwKOXxKQ+nV0fGdlpD6l1b7pF9b23tbSPrOwjITvtIbXu3c7gRq3ezqx4oJqgrQ9OM81DUt27NDib21ra+uA00zyk1b15g7O5raWtD04zzUNi3Zs2OJvbWtr64DTTPKTWvetrIts27sHD+SYG+arGaH06uz4ystMeEuvetMH5FHUt7SMr+0jITntIrbs3GUSkLDY4ESmL00REpCROEymuT2fXR0Z22oPTREREOuA0kQL6dHZ9ZGSnPSTW3Wkik+vT2fWRkZ32kFp3p4lMrk9nv7Kyj4TstIfUujffom7bh23q6IZ3Xa7SWwRye0D/h76yj4TstIe0und5yPDHX79tf/z12yfXtnqz7/u27zv2ygupT2fXR0Z22kNa3X2KKiJlaT5NhIBeLZD6dPYrK/tIyE57SK1788v2xGsi5+Xp6PMHUp/Oro+M7LSH1Lo3f8jgk9S1tI+s7CMhO+0hse6ewYlIWWxwIlIWp4mISEmcJlJcn86uj4zstAeniYiIdKDrBz8T0Ftt34lb20dCdtpDUt27ffAzwYr/xyZoH1nZR0J22kNa3f3g5wL6dHZ9ZGSnPSTW3Q9+nlyfzq6PjOy0h9S6+5BBRMrSZYt6PYMbeRZ3uVye9uLUOQClT2fXR0Z22kNi3bt9sv3I7So9LprUp7PrIyM77SG17m5RRaQs3RqcU0XW0j6yso+E7LSHpLq7ghORstjgRKQsThMRkZI4TaS4Pp1dHxnZaQ9OExER6UDT9+Buvdg74mnqre018cGzhD6dXR8Z2WkPqXX3Q2cK6NPZr6zsIyE77SGx7m5RRaQszVdwxOeibtvHy1V6a0RuT+jD5FV9JGSnPSTWvdtd1G0bdx/1HIy8Dzpan86uj4zstIfUurtFFZGyNB94SUC/pEyPBkpgZR8J2WkPqXVvvkUlzuD2fUfPH0h9Ors+MrLTHlLr7msiBfTp7FdW9pGQnfaQWHfP4ESkLDY4ESmL00REpCROEymuT2fXR0Z22oPTREREOuBVrQL6dHZ9ZGSnPSTWvfm4JOKjA89L4NFLYlKfzq6PjOy0h9S6d92i+k7cWtpHVvaRkJ32kFJ3t6gF9Ons+sjITntIrHvXmwx+un19bX1wmmkeEuvuU1QRKYsNTkTK4jSRyfXp7PrIyE57SK2700QK6NPZr6zsIyE77SGx7m5RRaQsNjgRKYvTRESkJE4TKa5PZ9dHRnbag9NEREQ60Pyy/ZlRl+3PjL5oTOnT2fWRkZ32kFr37h/8PIJzqNHniaQ+nV0fGdlpD6l177ZFHXkP9ciK5w0J2vrgNNM8JNXdMzgRKUuXBufqbS1tfXCaaR7S6u4KTkTKYoMTkbLY4ESkLF0anBNF1tI+srKPhOy0h7S6u4ITkbLY4ESkLE4TEZGSOE2kuD6dXR8Z2WkPThMREemAH/xcQJ/Oro+M7LSHxLo3H5dEfPDzeQk8eklM6tPZ9ZGRnfaQWne3qCJSFj8XdXJ9Ors+MrLTHlLr7hZ1cn06uz4ystMeUuvuFlVEymKDE5GyeAY3uT6dXR8Z2WkPqXVv/h6ck0TW0j6yso+E7LSHxLq7RRWRstjgRKQsThMRkZJ8Mk3k51//7Cb25vWriPeiVtKns+sjIzvtwWkiIiIdaP4U9c3rV0//3HNFeIZ+TO80kbV9JGSnPSTWvWmDe/P61UdN7fx9L1a8ppKgrQ9OM81Dat3doopIWZqu4H7+9c+PtqijOL/RvJI+nV0fGdlpD6l1b34Gd96ijuK8VB0NqU9n10dGdtpDYt3doopIWZo2OGJ7um38S8qkPp39yso+ErLTHlLr3vUMbtRrIitOUkjQ1genmeYhte5dz+BGQr8t7jSRtX0kZKc9JNbdMzgRKYsNTkTK4jQRESmJ00SK69PZ9ZGRnfbgNBERkQ40aXDHV0PevH719NWb47b6crk8fY2C1Kez6yMjO+0hve4vek3k3MRGTRM5hxk9yYDUp7PrIyM77WGWur9oBffzr38i773t+46/d0a+yEqf6azuIyE77WGWunsGJyJlscGJSFlscCJSFhuciJTFaSKT69PZ9ZGRnfaQWvcmDe7YyEY+VT0GoicZEP9BUdr64DTTPKTX3S2qiJTFBiciZXGaiIiUxGkixfXp7PrIyE57cJqIiEgHun6q1qhP2bp1CXckpD6dXR8Z2WkPqXVv8pqIjW28Pp1dHxnZaQ/pdW+ygjtPFRk1ZeQ8XWD0hANSn86uj4zstIf0unsGJyJlscGJSFlscCJSFhuciJTFBiciZWna4M5PTkeOS3r0fWV9Ors+MrLTHlLr7gpORMpigxORsjhNRERK4jSR4vp0dn1kZKc9OE1ERKQDTRrc8XL9m9evnr56c9xWXy6Xp69RkPp0dn1kZKc9pNf9RdNEbk0ROW5zz9+34tY0geMSuPeSmNSns+sjIzvtYZa6v2gFd2uKyAhuTRMYCalPZ9dHRnbawyx173YG12v19jlWPFBN0NYHp5nmIanuXRqczW0tbX1wmmke0urevMHZ3NbS1genmeYhse7NP5PB5raOtj44zTQPqXVv8pkMR85PVkc1vPMTFurFQkKfzq6PjOy0h8S6N2lw1yY2evV2DUNPriCnR9Arh5V9JGSnPaTX3ZsMIlIWG5yIlMVpIiJSEqeJFNens+sjIzvtwWkiIiIdcJrIpPp0dn1kZKc9pNfdaSKT6dPZ9ZGRnfYwS92dJjKZPp1dHxnZaQ+z1L35TYZt+7CyG/3i77XD02/Qk2+xJxxor+ojITvtIa3uXR4yXFd2I87hjlw7PPXKC6lPZ9dHRnbaQ1rdfYoqImVpPk2EgF4tkPp09isr+0jITntIrXvTM7jztnTkQ4djWOLAldKns+sjIzvtIbXuTaeJnP+5NwlPsih9Ors+MrLTHtLr7hmciJTFBiciZXGaiIiUxGkixfXp7PrIyE57cJqIiEgHmk8TefSz1tzaVlOTFEbr09n1kZGd9pBe96bTRD7381bcC0M2l1H6dHZ9ZGSnPcxS96bTRLZtzGejnqcKbNvYfT6pT2fXR0Z22sMsdfeDnyfXp7PrIyM77SG17j5kEJGyNG9wx3HlIy/fXy4fxhZTh9yUPp1dHxnZaQ+JdW9+2f7KyO3qcZlKnQNR+nR2fWRkpz2k1t0tqoiUpUmDu7VSG7F6u9WxqdXTaH06uz4ystMe0uvuCk5EymKDE5GyOE1EREriNJHi+nR2fWRkpz04TUREpANN3oO7vvN268XenqvC62+GW9vrEb8xSH06uz4ystMe0uvefJrIiNdDEv4yUfp0dn1kZKc9zFL35tNERnBrqsAq+nR2fWRkpz3MUvemV7W2bUM+F3XbPu7u9EqC/G1OHyav6iMhO+0hse7d7qJu27j7qAmzuSh9Ors+MrLTHlLr7lNUESlL84GXBPRLyvRooARW9pGQnfaQWvfmW1TiDO78yJjYHlD6dHZ9ZGSnPaTWvUmDOzaykQ8WjoHo8x7yzIV+mraqj4TstIf0unsGJyJlscGJSFmcJiIiJflkmsj7d2+7iX3x7XdOE1lIWx+cZpoHp4mIiHSgSYP74tvvPvrn61dvjtvq68eHjdxqk/p0dn1kZKc9pNf9Ra+JnJvYF99+99E29/x9K85hzkvg3ktiUp/Oro+M7LSHWer+ohXc+3dvHzawXmd6n5sqMOIOHKVPZ9dHRnbawyx1bz5N5Liq6/nQ4gz9JrnTRNb2kZCd9pBY9+YNbsQW9RbE9ihFn86uj4zstIfEuvsUVUTKYoMTkbI03aK+f/cWOYNbcZJCgrY+OM00D6l1b9Lgjo1s5IOFFScpJGjrg9NM85Bed7eoIlIWG5yIlMVpIiJSEqeJFNens+sjIzvtwWkiIiIdaPIU9Xpj4dYEkZ6rwutvhlvb61EXvSl9Ors+MrLTHtLr3nSayLmZ9RqZdA52DjVyXMtofTq7PjKy0x5mqXu3aSI976E+miowYr9P6tPZ9ZGRnfYwS909gxORsnRpcCOniBxZ8WlRgrY+OM00D2l1dwUnImWxwYlIWWxwIlKWJg3ufN5GTPG99X1lfTq7PjKy0x7S6+4KTkTKYoMTkbI4TURESuI0keL6dHZ9ZGSnPThNRESkA00a3PFS/Rfffvf01ZvjtvpyuTx9jYLUp7PrIyM77SG97k2niZyvaPW6snUOc14C914Sk/p0dn1kZKc9zFL3btNEevJoqkB1fTq7PjKy0x5mqbufizq5Pp1dHxnZaQ+pdW/a4EZtUc9Q26MEfTq7PjKy0x5S6+5TVBEpiw1ORMriGdzk+nR2fWRkpz2k1r1Jgzs2spFPVY+B6EkO5BQH+mnaqj4SstMe0uvuFlVEymKDE5GyOE1EREriNJHi+nR2fWRkpz04TUREpANOE5lUn86uj4zstIf0ujtNZDJ9Ors+MrLTHmapu9NEJtOns+sjIzvtYZa6d73JMIrzG80r6dPZ9ZGRnfaQWvemDW7btk+2qKM4L1VHQ+rT2fWRkZ32kFh3n6KKSFmaNjhie7pt/EvKpD6d/crKPhKy0x5S6+40kcn16ez6yMhOe0itu9NEJtWns+sjIzvtIb3unsGJSFlscCJSFqeJiEhJnCZSXJ/Oro+M7LQHp4mIiHTg2U9R770O0vs1kXuPhUc9oib16ez6yMhOe5ip7s9qcPemhvSeJnJvesCoSQqkPp1dHxnZaQ+z1f1ZW1Rigsi2se9Z0fp09isr+0jITnuYre4vPoPrNfPtc6x4cJqgrQ9OM83DDHV/UYOzua2lrQ9OM83DLHV/doOzua2lrQ9OM83DTHV/VoOzua2lrQ9OM83DbHVv8prItn0YXz7yNZFt+zDGmHhEPlqfzq6PjOy0h5nq/qwG96hx9VzZPSraiL9QpD6dXR8Z2WkPs9XdmwwiUhYbnIiUxWkiIlKSfXeaSGl9Ors+MrLTHpwmIiLSgSZXta5ft/6sF5fL5enr1p/1htSns+sjIzvtYYa6v+hDZx5NFenJo+kCIyD16ez6yMhOe5il7i9awd07s7u+9NuLe/v568t/vSH16ez6yMhOe5il7s3O4Ly+tZa2PjjNNA/JdW/S4Gxua2nrg9NM85Bed+fBTahPZ9dHRnbawwx1dx7cZPp0dn1kZKc9zFL3Fz1F3bbbU0VGcGu6wEhIfTq7PjKy0x5mqPuLGtznmlmvZve5UORkj976dHZ9ZGSnPcxSd28yiEhZbHAiUhaniYhISZwmUlyfzq6PjOy0B6eJiIh0oMmHzpwv3N/6eSuOW+nzxdtbP6+kT2fXR0Z22sNMdX9Wg3s0ReTWz1vxaJrArZ+3htSns+sjIzvtYba6P2uL+miKSE/uFYx+54p872n02cbKPhKy0x5mq3u3u6i9r3Hd+w0x6kCT1Kez6yMjO+1hhrp3uYtqc6uprQ9OM83DLHV/doOzuY3Xp7PrIyM77WGmuj+rwdncxuvT2fWRkZ32MFvdm7wmsm0fHjD0ni5yfCy8bR8OGu/9vDWkPp1dHxnZaQ8z1f1ZDc6nqOP16ez6yMhOe5it7t5kEJGy2OBEpCxOExGRkuy700RK69PZ9ZGRnfZA1X3b3KKKSGGcJjKRPp1dHxnZaQ8z1d1pIpPo09n1kZGd9jBb3Z0mMok+nV0fGdlpD7PVvcnnop4b23WbOvra1nW5Sl1ZGaVPZ9dHRnbawwx17zJN5P27t09b1h7cW/7u+/60dO0JqU9n10dGdtrDLHVvPk2kNys+8k7Q1genmeZhpro3nybSk3sh6dUC+Rt79AvaK/tIyE57mK3uTaeJnLelvV8T2bbby9NRj8hH69PZ9ZGRnfYwU92bThP53J+9lEdFI59kjtCns+sjIzvtYba6e5NBRMpigxORsjhNRERKsu9OEymtT2fXR0Z22gNV921ziyoihXnRi77Xr3t/3oPL5fL0de/Pe0Lq09n1kZGd9jBT3ZtOEzl+34PzUvfW9z0h9ens+sjITnuYre5Np4lsW98rXI/28SP2+aQ+nV0fGdlpD7PV/cVncMeGNvJ+6jEYfXg8Wp/Oro+M7LSHGereZZpIb1Z8KpSgrQ9OM83DLHVvPk3k+OChx1ncvZDHA8iRZ2Ej9ens+sjITnuYqe5NHjJc6TmufNvuh3x0AFlFn86uj4zstIfZ6t50msgIzl2aeoGQ0Kez6yMjO+1hpro3nybyn/xv/lP+P6GoJ5m99ens+sjITnuYre7eZBCRstjgRKQsThMRkZLsu9NESuvT2fWRkZ32QNV929yiikhhmrwmcryqdabHu3BXjlc2zvR8D4jSp7PrIyM77WGmujefJjLy0+yP34++Bzdan86uj4zstIfZ6t58mkhP6LMMUp/OfmVlHwnZaQ+z1f3ZW9Qrj2bBjV7NXaF+k43Sp7PrIyM77WGGur+owZ2b27mh9Zo2cg55Djb6PuBIfTq7PjKy0x5mqXvzaSK9WfGRd4K2PjjNNA8z1f1ZDe7RqKSePBqZMgJSn86uj4zstIfZ6t50msj7d2+7n8Hdmiqw7/uw8wdSn86uj4zstIeZ6t58mkjPbeujoo34C0Xq09n1kZGd9jBb3b3JICJlscGJSFmcJiIiJdn30zSRke/NiIj05l/N3tV2YKI6JwAAAABJRU5ErkJggg==;" parent="1" vertex="1">
                    <mxGeometry x="-508" y="56" width="312" height="366" as="geometry"/>
                </mxCell>
                <mxCell id="23" value="" style="html=1;dashed=0;whitespace=wrap;fillColor=none;strokeColor=#FF3333;strokeWidth=3;" parent="1" vertex="1">
                    <mxGeometry x="-811" y="69" width="30" height="110" as="geometry"/>
                </mxCell>
                <mxCell id="26" value="Vigilante1" style="text;align=center;fontStyle=1;verticalAlign=middle;spacingLeft=3;spacingRight=3;strokeColor=none;rotatable=0;points=[[0,0.5],[1,0.5]];portConstraint=eastwest;fillColor=none;" parent="1" vertex="1">
                    <mxGeometry x="-891" y="106" width="80" height="26" as="geometry"/>
                </mxCell>
                <mxCell id="27" value="Vigilante2" style="text;align=center;fontStyle=1;verticalAlign=middle;spacingLeft=3;spacingRight=3;strokeColor=none;rotatable=0;points=[[0,0.5],[1,0.5]];portConstraint=eastwest;fillColor=none;" parent="1" vertex="1">
                    <mxGeometry x="-891" y="201" width="80" height="26" as="geometry"/>
                </mxCell>
                <mxCell id="28" value="Vigilante3" style="text;align=center;fontStyle=1;verticalAlign=middle;spacingLeft=3;spacingRight=3;strokeColor=none;rotatable=0;points=[[0,0.5],[1,0.5]];portConstraint=eastwest;fillColor=none;" parent="1" vertex="1">
                    <mxGeometry x="-891" y="316" width="80" height="26" as="geometry"/>
                </mxCell>
                <mxCell id="29" value="" style="shape=ellipse;html=1;dashed=0;whitespace=wrap;aspect=fixed;perimeter=ellipsePerimeter;fillColor=#CCCCCC;" vertex="1" parent="1">
                    <mxGeometry x="19" y="359" width="127" height="127" as="geometry"/>
                </mxCell>
                <mxCell id="30" value="" style="shape=ellipse;html=1;dashed=0;whitespace=wrap;aspect=fixed;perimeter=ellipsePerimeter;" vertex="1" parent="1">
                    <mxGeometry x="176" y="105" width="129" height="129" as="geometry"/>
                </mxCell>
                <mxCell id="31" value="1,2,&#10;3,4,&#10;5,6" style="text;align=center;fontStyle=1;verticalAlign=middle;spacingLeft=3;spacingRight=3;strokeColor=none;rotatable=0;points=[[0,0.5],[1,0.5]];portConstraint=eastwest;fillColor=none;" vertex="1" parent="1">
                    <mxGeometry x="84" y="389.5" width="80" height="61" as="geometry"/>
                </mxCell>
                <mxCell id="32" value="7,8,9,10&#10;,11,12,13,&#10;14,15,16" style="text;align=center;fontStyle=1;verticalAlign=middle;spacingLeft=3;spacingRight=3;strokeColor=none;rotatable=0;points=[[0,0.5],[1,0.5]];portConstraint=eastwest;fillColor=none;" vertex="1" parent="1">
                    <mxGeometry x="203" y="124.5" width="80" height="90" as="geometry"/>
                </mxCell>
                <mxCell id="34" value="A1" style="text;align=center;fontStyle=1;verticalAlign=middle;spacingLeft=3;spacingRight=3;strokeColor=none;rotatable=0;points=[[0,0.5],[1,0.5]];portConstraint=eastwest;fillColor=none;" vertex="1" parent="1">
                    <mxGeometry x="57" y="76" width="80" height="26" as="geometry"/>
                </mxCell>
                <mxCell id="35" value="A2" style="text;align=center;fontStyle=1;verticalAlign=middle;spacingLeft=3;spacingRight=3;strokeColor=none;rotatable=0;points=[[0,0.5],[1,0.5]];portConstraint=eastwest;fillColor=none;" vertex="1" parent="1">
                    <mxGeometry x="203" y="70" width="80" height="26" as="geometry"/>
                </mxCell>
                <mxCell id="36" value="" style="shape=ellipse;html=1;dashed=0;whitespace=wrap;aspect=fixed;perimeter=ellipsePerimeter;" vertex="1" parent="1">
                    <mxGeometry x="322" y="111" width="130" height="130" as="geometry"/>
                </mxCell>
                <mxCell id="37" value="17,18,19,&#10;20,21,22,&#10;23,24,25&#10;" style="text;align=center;fontStyle=1;verticalAlign=middle;spacingLeft=3;spacingRight=3;strokeColor=none;rotatable=0;points=[[0,0.5],[1,0.5]];portConstraint=eastwest;fillColor=none;" vertex="1" parent="1">
                    <mxGeometry x="349" y="126.5" width="80" height="90" as="geometry"/>
                </mxCell>
                <mxCell id="38" value="A3" style="text;align=center;fontStyle=1;verticalAlign=middle;spacingLeft=3;spacingRight=3;strokeColor=none;rotatable=0;points=[[0,0.5],[1,0.5]];portConstraint=eastwest;fillColor=none;" vertex="1" parent="1">
                    <mxGeometry x="349" y="76" width="80" height="26" as="geometry"/>
                </mxCell>
                <mxCell id="39" value="" style="shape=ellipse;html=1;dashed=0;whitespace=wrap;aspect=fixed;perimeter=ellipsePerimeter;" vertex="1" parent="1">
                    <mxGeometry x="587" y="104" width="130" height="130" as="geometry"/>
                </mxCell>
                <mxCell id="40" value="1,2,3,&#10;4,5,6,&#10;7,8" style="text;align=center;fontStyle=1;verticalAlign=middle;spacingLeft=3;spacingRight=3;strokeColor=none;rotatable=0;points=[[0,0.5],[1,0.5]];portConstraint=eastwest;fillColor=none;" vertex="1" parent="1">
                    <mxGeometry x="614" y="119.5" width="80" height="90" as="geometry"/>
                </mxCell>
                <mxCell id="41" value="B1" style="text;align=center;fontStyle=1;verticalAlign=middle;spacingLeft=3;spacingRight=3;strokeColor=none;rotatable=0;points=[[0,0.5],[1,0.5]];portConstraint=eastwest;fillColor=none;" vertex="1" parent="1">
                    <mxGeometry x="614" y="69" width="80" height="26" as="geometry"/>
                </mxCell>
                <mxCell id="42" value="" style="shape=ellipse;html=1;dashed=0;whitespace=wrap;aspect=fixed;perimeter=ellipsePerimeter;fillColor=none;" vertex="1" parent="1">
                    <mxGeometry x="101" y="356" width="130" height="130" as="geometry"/>
                </mxCell>
                <mxCell id="43" value="7,8" style="text;align=center;fontStyle=1;verticalAlign=middle;spacingLeft=3;spacingRight=3;strokeColor=none;rotatable=0;points=[[0,0.5],[1,0.5]];portConstraint=eastwest;fillColor=none;" vertex="1" parent="1">
                    <mxGeometry x="146" y="376" width="80" height="90" as="geometry"/>
                </mxCell>
                <mxCell id="44" value="B1" style="text;align=center;fontStyle=1;verticalAlign=middle;spacingLeft=3;spacingRight=3;strokeColor=none;rotatable=0;points=[[0,0.5],[1,0.5]];portConstraint=eastwest;fillColor=none;" vertex="1" parent="1">
                    <mxGeometry x="118" y="320" width="80" height="26" as="geometry"/>
                </mxCell>
                <mxCell id="45" value="" style="shape=ellipse;html=1;dashed=0;whitespace=wrap;aspect=fixed;perimeter=ellipsePerimeter;fillColor=none;" vertex="1" parent="1">
                    <mxGeometry x="37" y="108" width="127" height="127" as="geometry"/>
                </mxCell>
                <mxCell id="46" value="1,2,3,4,5,6" style="text;align=center;fontStyle=1;verticalAlign=middle;spacingLeft=3;spacingRight=3;strokeColor=none;rotatable=0;points=[[0,0.5],[1,0.5]];portConstraint=eastwest;fillColor=none;" vertex="1" parent="1">
                    <mxGeometry x="60.5" y="158.5" width="80" height="26" as="geometry"/>
                </mxCell>
                <mxCell id="47" value="A1" style="text;align=center;fontStyle=1;verticalAlign=middle;spacingLeft=3;spacingRight=3;strokeColor=none;rotatable=0;points=[[0,0.5],[1,0.5]];portConstraint=eastwest;fillColor=none;" vertex="1" parent="1">
                    <mxGeometry x="44" y="320" width="80" height="26" as="geometry"/>
                </mxCell>
                <mxCell id="50" value="" style="shape=ellipse;html=1;dashed=0;whitespace=wrap;aspect=fixed;perimeter=ellipsePerimeter;" vertex="1" parent="1">
                    <mxGeometry x="582" y="355" width="130" height="130" as="geometry"/>
                </mxCell>
                <mxCell id="51" value="7,8" style="text;align=center;fontStyle=1;verticalAlign=middle;spacingLeft=3;spacingRight=3;strokeColor=none;rotatable=0;points=[[0,0.5],[1,0.5]];portConstraint=eastwest;fillColor=none;" vertex="1" parent="1">
                    <mxGeometry x="609" y="370.5" width="80" height="90" as="geometry"/>
                </mxCell>
                <mxCell id="52" value="R" style="text;align=center;fontStyle=1;verticalAlign=middle;spacingLeft=3;spacingRight=3;strokeColor=none;rotatable=0;points=[[0,0.5],[1,0.5]];portConstraint=eastwest;fillColor=none;" vertex="1" parent="1">
                    <mxGeometry x="609" y="320" width="80" height="26" as="geometry"/>
                </mxCell>
                <mxCell id="53" value="Caso1" style="text;align=center;fontStyle=1;verticalAlign=middle;spacingLeft=3;spacingRight=3;strokeColor=none;rotatable=0;points=[[0,0.5],[1,0.5]];portConstraint=eastwest;fillColor=none;" vertex="1" parent="1">
                    <mxGeometry x="21" y="16" width="80" height="26" as="geometry"/>
                </mxCell>
                <mxCell id="55" value="Caso1.1" style="text;align=center;fontStyle=1;verticalAlign=middle;spacingLeft=3;spacingRight=3;strokeColor=none;rotatable=0;points=[[0,0.5],[1,0.5]];portConstraint=eastwest;fillColor=none;" vertex="1" parent="1">
                    <mxGeometry x="46" y="567" width="80" height="26" as="geometry"/>
                </mxCell>
                <mxCell id="56" value="" style="shape=ellipse;html=1;dashed=0;whitespace=wrap;aspect=fixed;perimeter=ellipsePerimeter;fillColor=#CCCCCC;" vertex="1" parent="1">
                    <mxGeometry x="141" y="643" width="129" height="129" as="geometry"/>
                </mxCell>
                <mxCell id="57" value="9,10,11,&#10;12,13,&#10;14,15,16" style="text;align=center;fontStyle=1;verticalAlign=middle;spacingLeft=3;spacingRight=3;strokeColor=none;rotatable=0;points=[[0,0.5],[1,0.5]];portConstraint=eastwest;fillColor=none;" vertex="1" parent="1">
                    <mxGeometry x="176.5" y="663" width="80" height="90" as="geometry"/>
                </mxCell>
                <mxCell id="58" value="A2" style="text;align=center;fontStyle=1;verticalAlign=middle;spacingLeft=3;spacingRight=3;strokeColor=none;rotatable=0;points=[[0,0.5],[1,0.5]];portConstraint=eastwest;fillColor=none;" vertex="1" parent="1">
                    <mxGeometry x="168" y="608" width="80" height="26" as="geometry"/>
                </mxCell>
                <mxCell id="59" value="" style="shape=ellipse;html=1;dashed=0;whitespace=wrap;aspect=fixed;perimeter=ellipsePerimeter;fillColor=none;" vertex="1" parent="1">
                    <mxGeometry x="43" y="643" width="130" height="130" as="geometry"/>
                </mxCell>
                <mxCell id="60" value="7,8" style="text;align=center;fontStyle=1;verticalAlign=middle;spacingLeft=3;spacingRight=3;strokeColor=none;rotatable=0;points=[[0,0.5],[1,0.5]];portConstraint=eastwest;fillColor=none;" vertex="1" parent="1">
                    <mxGeometry x="118" y="658" width="80" height="90" as="geometry"/>
                </mxCell>
                <mxCell id="61" value="R" style="text;align=center;fontStyle=1;verticalAlign=middle;spacingLeft=3;spacingRight=3;strokeColor=none;rotatable=0;points=[[0,0.5],[1,0.5]];portConstraint=eastwest;fillColor=none;" vertex="1" parent="1">
                    <mxGeometry x="66" y="610" width="80" height="26" as="geometry"/>
                </mxCell>
                <mxCell id="63" value="" style="shape=ellipse;html=1;dashed=0;whitespace=wrap;aspect=fixed;perimeter=ellipsePerimeter;" vertex="1" parent="1">
                    <mxGeometry x="582" y="635" width="129" height="129" as="geometry"/>
                </mxCell>
                <mxCell id="64" value="7,8,9,10,11,&#10;12,13,&#10;14,15,16" style="text;align=center;fontStyle=1;verticalAlign=middle;spacingLeft=3;spacingRight=3;strokeColor=none;rotatable=0;points=[[0,0.5],[1,0.5]];portConstraint=eastwest;fillColor=none;" vertex="1" parent="1">
                    <mxGeometry x="605" y="654.5" width="80" height="90" as="geometry"/>
                </mxCell>
                <mxCell id="65" value="R" style="text;align=center;fontStyle=1;verticalAlign=middle;spacingLeft=3;spacingRight=3;strokeColor=none;rotatable=0;points=[[0,0.5],[1,0.5]];portConstraint=eastwest;fillColor=none;" vertex="1" parent="1">
                    <mxGeometry x="609" y="600" width="80" height="26" as="geometry"/>
                </mxCell>
                <mxCell id="66" value="" style="shape=ellipse;html=1;dashed=0;whitespace=wrap;aspect=fixed;perimeter=ellipsePerimeter;fillColor=none;" vertex="1" parent="1">
                    <mxGeometry x="141" y="939" width="130" height="130" as="geometry"/>
                </mxCell>
                <mxCell id="67" value="17,18,19,&#10;20,21,22,&#10;23,24,25&#10;" style="text;align=center;fontStyle=1;verticalAlign=middle;spacingLeft=3;spacingRight=3;strokeColor=none;rotatable=0;points=[[0,0.5],[1,0.5]];portConstraint=eastwest;fillColor=none;" vertex="1" parent="1">
                    <mxGeometry x="176.5" y="963" width="80" height="90" as="geometry"/>
                </mxCell>
                <mxCell id="68" value="A3" style="text;align=center;fontStyle=1;verticalAlign=middle;spacingLeft=3;spacingRight=3;strokeColor=none;rotatable=0;points=[[0,0.5],[1,0.5]];portConstraint=eastwest;fillColor=none;" vertex="1" parent="1">
                    <mxGeometry x="168" y="904" width="80" height="26" as="geometry"/>
                </mxCell>
                <mxCell id="69" value="" style="shape=ellipse;html=1;dashed=0;whitespace=wrap;aspect=fixed;perimeter=ellipsePerimeter;fillColor=none;" vertex="1" parent="1">
                    <mxGeometry x="47.5" y="939" width="129" height="129" as="geometry"/>
                </mxCell>
                <mxCell id="70" value="7,8,9,10,11,&#10;12,13,&#10;14,15,16" style="text;align=center;fontStyle=1;verticalAlign=middle;spacingLeft=3;spacingRight=3;strokeColor=none;rotatable=0;points=[[0,0.5],[1,0.5]];portConstraint=eastwest;fillColor=none;" vertex="1" parent="1">
                    <mxGeometry x="64" y="954.5" width="80" height="90" as="geometry"/>
                </mxCell>
                <mxCell id="71" value="R" style="text;align=center;fontStyle=1;verticalAlign=middle;spacingLeft=3;spacingRight=3;strokeColor=none;rotatable=0;points=[[0,0.5],[1,0.5]];portConstraint=eastwest;fillColor=none;" vertex="1" parent="1">
                    <mxGeometry x="74.5" y="904" width="80" height="26" as="geometry"/>
                </mxCell>
            </root>
        </mxGraphModel>
    </diagram>
</mxfile>